<svg height="16" viewBox="0 0 16 16" width="16" xmlns="http://www.w3.org/2000/svg"><g fill-rule="evenodd" transform="translate(0 -1036.3622)"><path d="m3 4v12h10v-12h-1v1h-8v-1z" fill="#1a1a1a" transform="translate(0 1036.3622)"/><path d="m5 1.0332031v3h6v-3h-1.1777344a2 2 0 0 1  .0234375.2871094 2 2 0 0 1-2 2 2 2 0 0 1-2-2 2 2 0 0 1  .0234375-.2871094z" fill="#1a1a1a" transform="translate(0 1036.3622)"/><circle cx="7.8450418" cy="1037.6823" fill="#1a1a1a" r="1"/><path d="m4 1047.4335h7v1h-7z" fill="#fff"/><path d="m4 1049.3622h7v1h-7z" fill="#fff"/></g></svg>