<svg height="16" viewBox="0 0 16 16" width="16" xmlns="http://www.w3.org/2000/svg"><path d="m8 0a8 8 0 0 0-5.3457031 2.0605469 9.4237289 2.4406779 0 0 0  5.2441406.4140625 9.4237289 2.4406779 0 0 0  5.4140625-.4472656 8 8 0 0 0-5.3125-2.0273438z" fill="#fff" fill-rule="evenodd"/><path d="m7.8984375 14a9.4237289 2.4406779 0 0 0-4.765625.337891 8 8 0 0 0  4.8671875 1.662109 8 8 0 0 0  4.835938-1.634766 9.4237289 2.4406779 0 0 0-4.9375005-.365234z" fill="#fff" fill-rule="evenodd"/><path d="m9.2881356 15.932203c0 0-9.15254235-2.492429-9.15254235-6.7796603 0-5.5439216 10.03389875-6.0338987 10.03389875-6.0338987l-1.217517-3.17480853 7.188936 4.05499553-3.947984 6.280994-1.348292-4.4773988c0 0-6.9061702.5673282-6.7399464 3.4857098.1746574 3.066449 5.1729849 3.232969 5.1729849 3.232969z" fill="#1a1a1a" fill-rule="evenodd"/></svg>