<svg height="16" viewBox="0 0 16 16" width="16" xmlns="http://www.w3.org/2000/svg"><circle cx="8" cy="8" fill="#1a1a1a" fill-rule="evenodd" r="8"/><text font-family="sans-serif" font-size="5.5836153" letter-spacing="0" line-height="125%" word-spacing="0" x=".98094839" xml:space="preserve" y="10.035238"><tspan fill="#fff" font-family="sans-serif" font-weight="bold" x=".98094839" y="10.035238">HTM</tspan></text><path d="m8 0a8 8 0 0 0-5.3457031 2.0605469 9.4237289 2.4406779 0 0 0  5.2441406.4140625 9.4237289 2.4406779 0 0 0  5.4140625-.4472656 8 8 0 0 0-5.3125-2.0273438z" fill="#fff" fill-rule="evenodd"/><path d="m7.8984375 14a9.4237289 2.4406779 0 0 0-4.765625.337891 8 8 0 0 0  4.8671875 1.662109 8 8 0 0 0  4.835938-1.634766 9.4237289 2.4406779 0 0 0-4.9375005-.365234z" fill="#fff" fill-rule="evenodd"/></svg>